<svg xmlns="http://www.w3.org/2000/svg" viewBox="0 0 1600 520" role="img" aria-label="خلفية صناعية مع شرارات">
  <defs>
    <linearGradient id="steel" x1="0" x2="1" y1="0" y2="1">
      <stop stop-color="#101820"/>
      <stop offset="0.55" stop-color="#1f2933"/>
      <stop offset="1" stop-color="#030712"/>
    </linearGradient>
    <radialGradient id="disc" cx="50%" cy="50%" r="50%">
      <stop stop-color="#9ca3af"/>
      <stop offset="0.45" stop-color="#374151"/>
      <stop offset="0.7" stop-color="#111827"/>
      <stop offset="1" stop-color="#020617"/>
    </radialGradient>
  </defs>
  <rect width="1600" height="520" fill="#071018"/>
  <rect x="0" y="320" width="1600" height="160" fill="url(#steel)" transform="skewY(-8)"/>
  <g transform="translate(1040 120) rotate(18)">
    <rect x="-80" y="-40" width="360" height="88" rx="34" fill="#1f2937"/>
    <rect x="120" y="-18" width="330" height="36" rx="18" fill="#111827"/>
    <circle cx="0" cy="0" r="112" fill="url(#disc)"/>
    <circle cx="0" cy="0" r="72" fill="none" stroke="#f97316" stroke-width="14" opacity=".85"/>
    <circle cx="0" cy="0" r="28" fill="#020617" stroke="#6b7280" stroke-width="8"/>
  </g>
  <g stroke-linecap="round">
    <path d="M920 300 C650 342 432 407 110 498" stroke="#f97316" stroke-width="5"/>
    <path d="M900 310 C690 390 522 456 230 516" stroke="#fb923c" stroke-width="3"/>
    <path d="M930 292 C720 288 511 292 260 333" stroke="#fed7aa" stroke-width="2"/>
    <path d="M950 318 C760 430 668 480 520 520" stroke="#f97316" stroke-width="4"/>
    <path d="M915 304 C780 350 650 382 420 407" stroke="#ffedd5" stroke-width="2"/>
  </g>
  <g fill="#fb923c" opacity=".9">
    <circle cx="720" cy="360" r="4"/><circle cx="650" cy="383" r="3"/><circle cx="590" cy="408" r="5"/><circle cx="480" cy="438" r="3"/><circle cx="820" cy="330" r="4"/>
  </g>
</svg>
